<svg width="201" height="201" viewBox="0 0 201 201" fill="none" xmlns="http://www.w3.org/2000/svg">
<rect width="201" height="201" rx="100.5" fill="#071927"/>
<mask id="mask0_8_33" style="mask-type:alpha" maskUnits="userSpaceOnUse" x="44" y="115" width="113" height="42">
<path d="M44 115.59H156.459V156.235H44V115.59Z" fill="white"/>
</mask>
<g mask="url(#mask0_8_33)">
<path fill-rule="evenodd" clip-rule="evenodd" d="M100.121 136.277C96.1581 136.277 92.4758 135.491 89.4701 134.003L57.1045 117.982L47.4061 123.5C42.7962 126.122 42.8767 130.141 47.5857 132.472L92.3503 154.631C94.5245 155.707 97.3041 156.236 100.121 156.236C103.41 156.236 106.747 155.516 109.231 154.103L153.054 129.171C157.664 126.548 157.583 122.528 152.874 120.199L143.568 115.59L112.432 133.305C109.062 135.221 104.69 136.277 100.121 136.277Z" fill="url(#paint0_linear_8_33)"/>
</g>
<path fill-rule="evenodd" clip-rule="evenodd" d="M153.162 93.6686L145.391 89.7651L127.295 100.211L124.188 102.004L121.083 103.797L112.612 108.687C109.234 110.639 104.849 111.712 100.269 111.712C96.2959 111.712 92.6038 110.912 89.5902 109.4L79.8849 104.524L76.6725 102.912L73.4602 101.299L55.5773 92.315L47.4152 97.0273C42.7931 99.6959 42.8723 103.783 47.5938 106.155L56.9265 110.842L60.1388 112.455L63.3496 114.069L92.4781 128.699C94.6564 129.792 97.4449 130.33 100.269 130.33C103.565 130.33 106.913 129.598 109.401 128.161L137.406 111.995L140.513 110.202L143.618 108.41L153.342 102.796C157.964 100.129 157.883 96.0403 153.162 93.6686Z" fill="url(#paint1_linear_8_33)"/>
<path fill-rule="evenodd" clip-rule="evenodd" d="M153.162 69.7542L108.277 47.6042C106.099 46.5279 103.312 46 100.486 46C97.1902 46 93.8428 46.7204 91.354 48.1322L47.4152 73.056C42.7931 75.6767 42.8723 79.6931 47.5938 82.0236L55.3646 85.8592L58.5769 87.4444L61.7893 89.0297L79.6722 97.8559L82.8845 99.4397L86.0969 101.026L92.4781 104.177C94.6564 105.251 97.4449 105.779 100.269 105.779C103.565 105.779 106.913 105.059 109.401 103.647L114.659 100.665L117.765 98.903L120.871 97.1412L138.966 86.8771L142.073 85.1154L145.178 83.3537L153.342 78.7233C157.964 76.1026 157.883 72.0847 153.162 69.7542Z" fill="url(#paint2_linear_8_33)"/>
<defs>
<linearGradient id="paint0_linear_8_33" x1="100.23" y1="49.5439" x2="100.23" y2="156.236" gradientUnits="userSpaceOnUse">
<stop stop-color="#B3F9BA"/>
<stop offset="1" stop-color="#F6FB8C"/>
</linearGradient>
<linearGradient id="paint1_linear_8_33" x1="100.378" y1="49.626" x2="100.378" y2="153.781" gradientUnits="userSpaceOnUse">
<stop stop-color="#B1FFBF"/>
<stop offset="1" stop-color="#FFF16D"/>
</linearGradient>
<linearGradient id="paint2_linear_8_33" x1="100.378" y1="46" x2="100.378" y2="154.083" gradientUnits="userSpaceOnUse">
<stop stop-color="#B3F9BA"/>
<stop offset="1" stop-color="#F6FB8C"/>
</linearGradient>
</defs>
</svg>
